
<svg width="30" height="36" viewBox="0 0 30 36" fill="none" xmlns="http://www.w3.org/2000/svg">
<path d="M24.6336 18.9711C24.6172 16.1738 25.8846 14.0656 28.4439 12.5111C27.0125 10.4604 24.8469 9.33242 21.9922 9.11504C19.2893 8.90176 16.332 10.69 15.2492 10.69C14.1049 10.69 11.4881 9.18887 9.4291 9.18887C5.17988 9.25449 0.664062 12.5768 0.664062 19.3361C0.664062 21.3336 1.0291 23.3967 1.75918 25.5213C2.73535 28.3186 6.25449 35.1723 9.92539 35.0615C11.8449 35.0164 13.2025 33.6998 15.7004 33.6998C18.1244 33.6998 19.3795 35.0615 21.5205 35.0615C25.2242 35.0082 28.407 28.7779 29.334 25.9725C24.367 23.6305 24.6336 19.1146 24.6336 18.9711ZM20.3229 6.46133C22.4023 3.99219 22.2137 1.74453 22.1521 0.936523C20.3146 1.04316 18.19 2.1875 16.9801 3.59434C15.6471 5.10371 14.8637 6.96992 15.0318 9.07402C17.017 9.22578 18.8299 8.20449 20.3229 6.46133Z" fill="black"/>
</svg>
