<svg width="34" height="34" viewBox="0 0 34 34" fill="none" xmlns="http://www.w3.org/2000/svg">
<path d="M33.1829 13.7677H31.8535V13.6992H17V20.3008H26.3272C24.9664 24.1437 21.31 26.9023 17 26.9023C11.5314 26.9023 7.09766 22.4686 7.09766 17C7.09766 11.5314 11.5314 7.09766 17 7.09766C19.5243 7.09766 21.8208 8.04993 23.5694 9.60542L28.2375 4.93729C25.2899 2.19022 21.3471 0.496094 17 0.496094C7.88572 0.496094 0.496094 7.88572 0.496094 17C0.496094 26.1143 7.88572 33.5039 17 33.5039C26.1143 33.5039 33.5039 26.1143 33.5039 17C33.5039 15.8934 33.39 14.8132 33.1829 13.7677Z" fill="#FFC107"/>
<path d="M2.39648 9.31826L7.81884 13.2949C9.28604 9.66236 12.8393 7.09766 16.9975 7.09766C19.5218 7.09766 21.8183 8.04993 23.5669 9.60542L28.235 4.93729C25.2874 2.19022 21.3446 0.496094 16.9975 0.496094C10.6583 0.496094 5.16089 4.07497 2.39648 9.31826Z" fill="#FF3D00"/>
<path d="M16.9953 33.5043C21.2583 33.5043 25.1318 31.8729 28.0604 29.2199L22.9524 24.8975C21.2398 26.2 19.147 26.9044 16.9953 26.9027C12.7027 26.9027 9.05778 24.1655 7.68466 20.3457L2.30273 24.4923C5.03413 29.8371 10.5811 33.5043 16.9953 33.5043Z" fill="#4CAF50"/>
<path d="M33.179 13.7667H31.8496V13.6982H16.9961V20.2998H26.3233C25.6724 22.1288 24.4999 23.727 22.9507 24.897L22.9532 24.8953L28.0611 29.2177C27.6997 29.5461 33.5 25.251 33.5 16.999C33.5 15.8924 33.3861 14.8123 33.179 13.7667Z" fill="#1976D2"/>
</svg>
